<svg width="512" height="512" viewBox="0 0 512 512" fill="none" xmlns="http://www.w3.org/2000/svg">
  <rect width="512" height="512" rx="96" fill="#05070B"/>
  <path d="M96 126L256 36L416 126V206L256 296L96 206V126Z" fill="#FF2D2D" fill-opacity="0.92"/>
  <path d="M96 221L256 311L416 221V306L256 476L96 386V221Z" fill="#7A001F"/>
  <path d="M145 144L256 82L367 144L256 206L145 144Z" fill="#FF4A3D"/>
  <path d="M145 368L256 430L367 368L256 306L145 368Z" fill="#FF2D2D"/>
  <path d="M96 126L256 216L416 126" stroke="#FFB020" stroke-width="18" stroke-linejoin="round"/>
  <path d="M96 386L256 296L416 386" stroke="#E8EDF4" stroke-width="18" stroke-linejoin="round"/>
</svg>
